<?xml version="1.0" encoding="UTF-8"?>
<svg id="Layer_1" xmlns="http://www.w3.org/2000/svg" version="1.1" viewBox="0 0 512 512">
  <!-- Generator: Adobe Illustrator 30.6.0, SVG Export Plug-In . SVG Version: 2.1.4 Build 109)  -->
  <defs>
    <style>
      .st0 {
        fill: #fff;
      }

      .st1 {
        fill: #f9ab6c;
      }
    </style>
  </defs>
  <rect class="st0" width="512" height="512"/>
  <path class="st1" d="M305.2,244.9c-7.4-2.6-14.1,1.4-16.8,8.6-3.8,10.1-12.3,17.7-22.3,21.2-20.2,7.2-42.1-.6-52.4-19.8-2-8.8-10.2-12.7-17.9-9.8-7.6,2.9-9.5,11.8-6,19,11.5,23.1,33.4,37.2,59.3,38,28,.9,53.6-14.8,63.7-41.1,2.6-6.9-1.6-14.1-7.6-16.1h0Z"/>
  <path class="st1" d="M381.9,73.7c-30.9-10.9-64-7.6-92.9,7.5-13.7,7.2-25.5,16.5-36.8,27.2l-14.3-12.6c-17.4-13.9-37.6-23.8-59.9-27.2-34.6-5.3-68.7,5.5-94.9,28.4-39,34.1-49.9,89.3-37.3,138.2,9.4,36.5,30.4,69.3,55.8,97.2,39.9,43.7,91,76.6,146.3,97.8,15.3,5.9,31,10.9,47.2,13.9,3.7.7,7.6,1.3,11.1,0,3.5-1.2,6.5-4.8,5.8-8.5-.6-2.7-2.8-4.6-5-6.2-17.4-13.3-36.7-23.8-55.6-34.8-58.6-34.1-116.4-75.2-149.3-134.5-22.7-40.9-27.8-92.7,9.2-127.3,21.2-19.8,50.8-25.1,77.5-14.5,12.5,5,23.1,11.8,32.1,21.7l13.2,14.5c10.4,11.4,28.3,10.4,37.7-1.5,10.4-13.1,22.3-24.1,37.1-31.6,33.5-17,73.4-7.8,96.1,21.9,19,24.8,24,57.1,14.7,87-5,16-13.2,29.6-24,42.3-9.5,11.2-19.4,21.1-30.5,30.8l-34.5,30.1c-4.7,4.1-9.1,8.1-13.2,12.9s-3.1,5.4-3.5,8.8c-2.5,20.9,22.5,33.7,38.5,20l8.3-7.1,32.5-28.2c17.2-15,32.5-31.1,46.3-49.4,17.9-23.6,27.5-51.6,29.4-81.4,3.6-58.1-31.2-115.5-87-135.3h0Z"/>
</svg>